<mxfile host="app.diagrams.net" modified="2024-07-25T06:45:26.824Z" agent="Mozilla/5.0 (Windows NT 10.0; Win64; x64) AppleWebKit/537.36 (KHTML, like Gecko) Chrome/126.0.0.0 Safari/537.36" version="24.7.2" etag="-FZWakGn2gEZS-IK1wUj" type="github">
  <diagram name="Page-1" id="nzeid53WU8ba-pOq-7hL">
    <mxGraphModel>
      <root>
        <mxCell id="0" />
        <mxCell id="1" parent="0" />
      </root>
    </mxGraphModel>
  </diagram>
</mxfile>
